<?xml version="1.0" encoding="UTF-8" standalone="no"?>
<!-- Created with Inkscape (http://www.inkscape.org/) -->

<svg
   xmlns:dc="http://purl.org/dc/elements/1.1/"
   xmlns:cc="http://creativecommons.org/ns#"
   xmlns:rdf="http://www.w3.org/1999/02/22-rdf-syntax-ns#"
   xmlns:svg="http://www.w3.org/2000/svg"
   xmlns="http://www.w3.org/2000/svg"
   xmlns:sodipodi="http://sodipodi.sourceforge.net/DTD/sodipodi-0.dtd"
   xmlns:inkscape="http://www.inkscape.org/namespaces/inkscape"
   width="446"
   height="169.55"
   id="svg3188"
   version="1.1"
   inkscape:version="0.48.5 r10040"
   sodipodi:docname="mesh.svg">
  <defs
     id="defs3190" />
  <sodipodi:namedview
     id="base"
     pagecolor="#ffffff"
     bordercolor="#666666"
     borderopacity="1.0"
     inkscape:pageopacity="0.0"
     inkscape:pageshadow="2"
     inkscape:zoom="1.4"
     inkscape:cx="223.21709"
     inkscape:cy="-26.11941"
     inkscape:document-units="px"
     inkscape:current-layer="layer1"
     showgrid="true"
     inkscape:window-width="1223"
     inkscape:window-height="769"
     inkscape:window-x="207"
     inkscape:window-y="119"
     inkscape:window-maximized="0"
     fit-margin-top="0"
     fit-margin-left="0"
     fit-margin-right="0"
     fit-margin-bottom="0">
    <inkscape:grid
       type="xygrid"
       id="grid3196"
       empspacing="5"
       visible="true"
       enabled="true"
       snapvisiblegridlinesonly="true"
       originx="-24.75px"
       originy="-893.75px" />
  </sodipodi:namedview>
  <metadata
     id="metadata3193">
    <rdf:RDF>
      <cc:Work
         rdf:about="">
        <dc:format>image/svg+xml</dc:format>
        <dc:type
           rdf:resource="http://purl.org/dc/dcmitype/StillImage" />
        <dc:title></dc:title>
      </cc:Work>
    </rdf:RDF>
  </metadata>
  <g
     inkscape:label="Calque 1"
     inkscape:groupmode="layer"
     id="layer1"
     transform="translate(-24.75,10.937823)">
    <rect
       style="fill:none;stroke:#000000;stroke-width:0.5;stroke-miterlimit:4;stroke-opacity:1;stroke-dasharray:none;stroke-dashoffset:0"
       id="rect3392"
       width="120"
       height="120"
       x="40"
       y="22.362183" />
    <path
       style="fill:none;stroke:#000000;stroke-width:0.5;stroke-linecap:butt;stroke-linejoin:miter;stroke-miterlimit:4;stroke-opacity:1;stroke-dasharray:none"
       d="m 40,52.362183 120,0"
       id="path4162"
       inkscape:connector-curvature="0" />
    <path
       style="fill:none;stroke:#000000;stroke-width:0.5;stroke-linecap:butt;stroke-linejoin:miter;stroke-miterlimit:4;stroke-opacity:1;stroke-dasharray:none"
       d="m 40,82.362183 120,0"
       id="path4164"
       inkscape:connector-curvature="0" />
    <path
       style="fill:none;stroke:#000000;stroke-width:0.5;stroke-linecap:butt;stroke-linejoin:miter;stroke-miterlimit:4;stroke-opacity:1;stroke-dasharray:none"
       d="m 40,112.36218 120,0"
       id="path4166"
       inkscape:connector-curvature="0" />
    <path
       style="fill:none;stroke:#000000;stroke-width:0.5;stroke-linecap:butt;stroke-linejoin:miter;stroke-miterlimit:4;stroke-opacity:1;stroke-dasharray:none"
       d="M 70,22.362183 70,142.36218"
       id="path4168"
       inkscape:connector-curvature="0" />
    <path
       style="fill:none;stroke:#000000;stroke-width:0.5;stroke-linecap:butt;stroke-linejoin:miter;stroke-miterlimit:4;stroke-opacity:1;stroke-dasharray:none"
       d="m 100,22.362183 0,119.999997"
       id="path4170"
       inkscape:connector-curvature="0" />
    <path
       style="fill:none;stroke:#000000;stroke-width:0.5;stroke-linecap:butt;stroke-linejoin:miter;stroke-miterlimit:4;stroke-opacity:1;stroke-dasharray:none"
       d="m 130,22.362183 0,119.999997"
       id="path4172"
       inkscape:connector-curvature="0" />
    <path
       sodipodi:type="arc"
       style="fill:#000000;fill-opacity:1;stroke:#000000;stroke-width:0.5;stroke-miterlimit:4;stroke-opacity:1;stroke-dasharray:none;stroke-dashoffset:0"
       id="path4174"
       sodipodi:cx="35"
       sodipodi:cy="177.36218"
       sodipodi:rx="5"
       sodipodi:ry="5"
       d="m 40,177.36218 a 5,5 0 1 1 -10,0 5,5 0 1 1 10,0 z"
       transform="translate(5,-154)" />
    <path
       transform="translate(36,-155)"
       d="m 40,177.36218 a 5,5 0 1 1 -10,0 5,5 0 1 1 10,0 z"
       sodipodi:ry="5"
       sodipodi:rx="5"
       sodipodi:cy="177.36218"
       sodipodi:cx="35"
       id="path4196"
       style="fill:#000000;fill-opacity:1;stroke:#000000;stroke-width:0.5;stroke-miterlimit:4;stroke-opacity:1;stroke-dasharray:none;stroke-dashoffset:0"
       sodipodi:type="arc" />
    <path
       sodipodi:type="arc"
       style="fill:#000000;fill-opacity:1;stroke:#000000;stroke-width:0.5;stroke-miterlimit:4;stroke-opacity:1;stroke-dasharray:none;stroke-dashoffset:0"
       id="path4198"
       sodipodi:cx="35"
       sodipodi:cy="177.36218"
       sodipodi:rx="5"
       sodipodi:ry="5"
       d="m 40,177.36218 a 5,5 0 1 1 -10,0 5,5 0 1 1 10,0 z"
       transform="translate(66,-155)" />
    <path
       transform="translate(96,-155)"
       d="m 40,177.36218 a 5,5 0 1 1 -10,0 5,5 0 1 1 10,0 z"
       sodipodi:ry="5"
       sodipodi:rx="5"
       sodipodi:cy="177.36218"
       sodipodi:cx="35"
       id="path4200"
       style="fill:#000000;fill-opacity:1;stroke:#000000;stroke-width:0.5;stroke-miterlimit:4;stroke-opacity:1;stroke-dasharray:none;stroke-dashoffset:0"
       sodipodi:type="arc" />
    <path
       sodipodi:type="arc"
       style="fill:#000000;fill-opacity:1;stroke:#000000;stroke-width:0.5;stroke-miterlimit:4;stroke-opacity:1;stroke-dasharray:none;stroke-dashoffset:0"
       id="path4202"
       sodipodi:cx="35"
       sodipodi:cy="177.36218"
       sodipodi:rx="5"
       sodipodi:ry="5"
       d="m 40,177.36218 a 5,5 0 1 1 -10,0 5,5 0 1 1 10,0 z"
       transform="translate(126,-155)" />
    <path
       transform="translate(5,-124)"
       d="m 40,177.36218 a 5,5 0 1 1 -10,0 5,5 0 1 1 10,0 z"
       sodipodi:ry="5"
       sodipodi:rx="5"
       sodipodi:cy="177.36218"
       sodipodi:cx="35"
       id="path4204"
       style="fill:#000000;fill-opacity:1;stroke:#000000;stroke-width:0.5;stroke-miterlimit:4;stroke-opacity:1;stroke-dasharray:none;stroke-dashoffset:0"
       sodipodi:type="arc" />
    <path
       sodipodi:type="arc"
       style="fill:#000000;fill-opacity:1;stroke:#000000;stroke-width:0.5;stroke-miterlimit:4;stroke-opacity:1;stroke-dasharray:none;stroke-dashoffset:0"
       id="path4206"
       sodipodi:cx="35"
       sodipodi:cy="177.36218"
       sodipodi:rx="5"
       sodipodi:ry="5"
       d="m 40,177.36218 a 5,5 0 1 1 -10,0 5,5 0 1 1 10,0 z"
       transform="translate(36,-125)" />
    <path
       transform="translate(66,-125)"
       d="m 40,177.36218 a 5,5 0 1 1 -10,0 5,5 0 1 1 10,0 z"
       sodipodi:ry="5"
       sodipodi:rx="5"
       sodipodi:cy="177.36218"
       sodipodi:cx="35"
       id="path4208"
       style="fill:#000000;fill-opacity:1;stroke:#000000;stroke-width:0.5;stroke-miterlimit:4;stroke-opacity:1;stroke-dasharray:none;stroke-dashoffset:0"
       sodipodi:type="arc" />
    <path
       sodipodi:type="arc"
       style="fill:#000000;fill-opacity:1;stroke:#000000;stroke-width:0.5;stroke-miterlimit:4;stroke-opacity:1;stroke-dasharray:none;stroke-dashoffset:0"
       id="path4210"
       sodipodi:cx="35"
       sodipodi:cy="177.36218"
       sodipodi:rx="5"
       sodipodi:ry="5"
       d="m 40,177.36218 a 5,5 0 1 1 -10,0 5,5 0 1 1 10,0 z"
       transform="translate(96,-125)" />
    <path
       transform="translate(126,-125)"
       d="m 40,177.36218 a 5,5 0 1 1 -10,0 5,5 0 1 1 10,0 z"
       sodipodi:ry="5"
       sodipodi:rx="5"
       sodipodi:cy="177.36218"
       sodipodi:cx="35"
       id="path4212"
       style="fill:#000000;fill-opacity:1;stroke:#000000;stroke-width:0.5;stroke-miterlimit:4;stroke-opacity:1;stroke-dasharray:none;stroke-dashoffset:0"
       sodipodi:type="arc" />
    <path
       sodipodi:type="arc"
       style="fill:#000000;fill-opacity:1;stroke:#000000;stroke-width:0.5;stroke-miterlimit:4;stroke-opacity:1;stroke-dasharray:none;stroke-dashoffset:0"
       id="path4214"
       sodipodi:cx="35"
       sodipodi:cy="177.36218"
       sodipodi:rx="5"
       sodipodi:ry="5"
       d="m 40,177.36218 a 5,5 0 1 1 -10,0 5,5 0 1 1 10,0 z"
       transform="translate(5,-94)" />
    <path
       transform="translate(36,-95)"
       d="m 40,177.36218 a 5,5 0 1 1 -10,0 5,5 0 1 1 10,0 z"
       sodipodi:ry="5"
       sodipodi:rx="5"
       sodipodi:cy="177.36218"
       sodipodi:cx="35"
       id="path4216"
       style="fill:#000000;fill-opacity:1;stroke:#000000;stroke-width:0.5;stroke-miterlimit:4;stroke-opacity:1;stroke-dasharray:none;stroke-dashoffset:0"
       sodipodi:type="arc" />
    <path
       sodipodi:type="arc"
       style="fill:#000000;fill-opacity:1;stroke:#000000;stroke-width:0.5;stroke-miterlimit:4;stroke-opacity:1;stroke-dasharray:none;stroke-dashoffset:0"
       id="path4218"
       sodipodi:cx="35"
       sodipodi:cy="177.36218"
       sodipodi:rx="5"
       sodipodi:ry="5"
       d="m 40,177.36218 a 5,5 0 1 1 -10,0 5,5 0 1 1 10,0 z"
       transform="translate(66,-95)" />
    <path
       transform="translate(96,-95)"
       d="m 40,177.36218 a 5,5 0 1 1 -10,0 5,5 0 1 1 10,0 z"
       sodipodi:ry="5"
       sodipodi:rx="5"
       sodipodi:cy="177.36218"
       sodipodi:cx="35"
       id="path4220"
       style="fill:#000000;fill-opacity:1;stroke:#000000;stroke-width:0.5;stroke-miterlimit:4;stroke-opacity:1;stroke-dasharray:none;stroke-dashoffset:0"
       sodipodi:type="arc" />
    <path
       sodipodi:type="arc"
       style="fill:#000000;fill-opacity:1;stroke:#000000;stroke-width:0.5;stroke-miterlimit:4;stroke-opacity:1;stroke-dasharray:none;stroke-dashoffset:0"
       id="path4222"
       sodipodi:cx="35"
       sodipodi:cy="177.36218"
       sodipodi:rx="5"
       sodipodi:ry="5"
       d="m 40,177.36218 a 5,5 0 1 1 -10,0 5,5 0 1 1 10,0 z"
       transform="translate(126,-95)" />
    <path
       transform="translate(5,-64)"
       d="m 40,177.36218 a 5,5 0 1 1 -10,0 5,5 0 1 1 10,0 z"
       sodipodi:ry="5"
       sodipodi:rx="5"
       sodipodi:cy="177.36218"
       sodipodi:cx="35"
       id="path4224"
       style="fill:#000000;fill-opacity:1;stroke:#000000;stroke-width:0.5;stroke-miterlimit:4;stroke-opacity:1;stroke-dasharray:none;stroke-dashoffset:0"
       sodipodi:type="arc" />
    <path
       sodipodi:type="arc"
       style="fill:#000000;fill-opacity:1;stroke:#000000;stroke-width:0.5;stroke-miterlimit:4;stroke-opacity:1;stroke-dasharray:none;stroke-dashoffset:0"
       id="path4226"
       sodipodi:cx="35"
       sodipodi:cy="177.36218"
       sodipodi:rx="5"
       sodipodi:ry="5"
       d="m 40,177.36218 a 5,5 0 1 1 -10,0 5,5 0 1 1 10,0 z"
       transform="translate(36,-65)" />
    <path
       transform="translate(66,-65)"
       d="m 40,177.36218 a 5,5 0 1 1 -10,0 5,5 0 1 1 10,0 z"
       sodipodi:ry="5"
       sodipodi:rx="5"
       sodipodi:cy="177.36218"
       sodipodi:cx="35"
       id="path4228"
       style="fill:#000000;fill-opacity:1;stroke:#000000;stroke-width:0.5;stroke-miterlimit:4;stroke-opacity:1;stroke-dasharray:none;stroke-dashoffset:0"
       sodipodi:type="arc" />
    <path
       sodipodi:type="arc"
       style="fill:#000000;fill-opacity:1;stroke:#000000;stroke-width:0.5;stroke-miterlimit:4;stroke-opacity:1;stroke-dasharray:none;stroke-dashoffset:0"
       id="path4230"
       sodipodi:cx="35"
       sodipodi:cy="177.36218"
       sodipodi:rx="5"
       sodipodi:ry="5"
       d="m 40,177.36218 a 5,5 0 1 1 -10,0 5,5 0 1 1 10,0 z"
       transform="translate(96,-65)" />
    <path
       transform="translate(126,-65)"
       d="m 40,177.36218 a 5,5 0 1 1 -10,0 5,5 0 1 1 10,0 z"
       sodipodi:ry="5"
       sodipodi:rx="5"
       sodipodi:cy="177.36218"
       sodipodi:cx="35"
       id="path4232"
       style="fill:#000000;fill-opacity:1;stroke:#000000;stroke-width:0.5;stroke-miterlimit:4;stroke-opacity:1;stroke-dasharray:none;stroke-dashoffset:0"
       sodipodi:type="arc" />
    <path
       sodipodi:type="arc"
       style="fill:#000000;fill-opacity:1;stroke:#000000;stroke-width:0.5;stroke-miterlimit:4;stroke-opacity:1;stroke-dasharray:none;stroke-dashoffset:0"
       id="path4234"
       sodipodi:cx="35"
       sodipodi:cy="177.36218"
       sodipodi:rx="5"
       sodipodi:ry="5"
       d="m 40,177.36218 a 5,5 0 1 1 -10,0 5,5 0 1 1 10,0 z"
       transform="translate(5,-34)" />
    <path
       transform="translate(36,-35)"
       d="m 40,177.36218 a 5,5 0 1 1 -10,0 5,5 0 1 1 10,0 z"
       sodipodi:ry="5"
       sodipodi:rx="5"
       sodipodi:cy="177.36218"
       sodipodi:cx="35"
       id="path4236"
       style="fill:#000000;fill-opacity:1;stroke:#000000;stroke-width:0.5;stroke-miterlimit:4;stroke-opacity:1;stroke-dasharray:none;stroke-dashoffset:0"
       sodipodi:type="arc" />
    <path
       sodipodi:type="arc"
       style="fill:#000000;fill-opacity:1;stroke:#000000;stroke-width:0.5;stroke-miterlimit:4;stroke-opacity:1;stroke-dasharray:none;stroke-dashoffset:0"
       id="path4238"
       sodipodi:cx="35"
       sodipodi:cy="177.36218"
       sodipodi:rx="5"
       sodipodi:ry="5"
       d="m 40,177.36218 a 5,5 0 1 1 -10,0 5,5 0 1 1 10,0 z"
       transform="translate(66,-35)" />
    <path
       transform="translate(96,-35)"
       d="m 40,177.36218 a 5,5 0 1 1 -10,0 5,5 0 1 1 10,0 z"
       sodipodi:ry="5"
       sodipodi:rx="5"
       sodipodi:cy="177.36218"
       sodipodi:cx="35"
       id="path4240"
       style="fill:#000000;fill-opacity:1;stroke:#000000;stroke-width:0.5;stroke-miterlimit:4;stroke-opacity:1;stroke-dasharray:none;stroke-dashoffset:0"
       sodipodi:type="arc" />
    <path
       sodipodi:type="arc"
       style="fill:#000000;fill-opacity:1;stroke:#000000;stroke-width:0.5;stroke-miterlimit:4;stroke-opacity:1;stroke-dasharray:none;stroke-dashoffset:0"
       id="path4242"
       sodipodi:cx="35"
       sodipodi:cy="177.36218"
       sodipodi:rx="5"
       sodipodi:ry="5"
       d="m 40,177.36218 a 5,5 0 1 1 -10,0 5,5 0 1 1 10,0 z"
       transform="translate(126,-35)" />
    <rect
       style="fill:none;stroke:#000000;stroke-width:1;stroke-miterlimit:4;stroke-opacity:1;stroke-dasharray:none;stroke-dashoffset:0"
       id="rect4244"
       width="120"
       height="120"
       x="190"
       y="22.362183" />
    <path
       style="fill:none;stroke:#000000;stroke-width:1px;stroke-linecap:butt;stroke-linejoin:miter;stroke-opacity:1"
       d="m 220,22.362183 0,119.999997"
       id="path4246"
       inkscape:connector-curvature="0" />
    <path
       style="fill:none;stroke:#000000;stroke-width:1px;stroke-linecap:butt;stroke-linejoin:miter;stroke-opacity:1"
       d="m 250,22.362183 0,119.999997"
       id="path4248"
       inkscape:connector-curvature="0" />
    <path
       style="fill:none;stroke:#000000;stroke-width:1px;stroke-linecap:butt;stroke-linejoin:miter;stroke-opacity:1"
       d="m 280,22.362183 0,119.999997"
       id="path4250"
       inkscape:connector-curvature="0" />
    <path
       style="fill:none;stroke:#000000;stroke-width:1px;stroke-linecap:butt;stroke-linejoin:miter;stroke-opacity:1"
       d="m 190,52.362183 120,0"
       id="path4252"
       inkscape:connector-curvature="0" />
    <path
       style="fill:none;stroke:#000000;stroke-width:1px;stroke-linecap:butt;stroke-linejoin:miter;stroke-opacity:1"
       d="m 190,82.362183 120,0"
       id="path4254"
       inkscape:connector-curvature="0" />
    <path
       style="fill:none;stroke:#000000;stroke-width:1px;stroke-linecap:butt;stroke-linejoin:miter;stroke-opacity:1"
       d="m 190,112.36218 120,0"
       id="path4256"
       inkscape:connector-curvature="0" />
    <path
       style="fill:none;stroke:#ff0000;stroke-width:1px;stroke-linecap:butt;stroke-linejoin:miter;stroke-opacity:1"
       d="m 200,32.362183 10,10"
       id="path4258"
       inkscape:connector-curvature="0" />
    <path
       style="fill:none;stroke:#ff0000;stroke-width:1px;stroke-linecap:butt;stroke-linejoin:miter;stroke-opacity:1"
       d="m 210,32.362183 -10,10"
       id="path4260"
       inkscape:connector-curvature="0" />
    <path
       inkscape:connector-curvature="0"
       id="path4262"
       d="m 230,32.362183 10,10"
       style="fill:none;stroke:#ff0000;stroke-width:1px;stroke-linecap:butt;stroke-linejoin:miter;stroke-opacity:1" />
    <path
       inkscape:connector-curvature="0"
       id="path4264"
       d="m 240,32.362183 -10,10"
       style="fill:none;stroke:#ff0000;stroke-width:1px;stroke-linecap:butt;stroke-linejoin:miter;stroke-opacity:1" />
    <path
       style="fill:none;stroke:#ff0000;stroke-width:1px;stroke-linecap:butt;stroke-linejoin:miter;stroke-opacity:1"
       d="m 260,32.362183 10,10"
       id="path4266"
       inkscape:connector-curvature="0" />
    <path
       style="fill:none;stroke:#ff0000;stroke-width:1px;stroke-linecap:butt;stroke-linejoin:miter;stroke-opacity:1"
       d="m 270,32.362183 -10,10"
       id="path4268"
       inkscape:connector-curvature="0" />
    <path
       inkscape:connector-curvature="0"
       id="path4270"
       d="m 290,32.362183 10,10"
       style="fill:none;stroke:#ff0000;stroke-width:1px;stroke-linecap:butt;stroke-linejoin:miter;stroke-opacity:1" />
    <path
       inkscape:connector-curvature="0"
       id="path4272"
       d="m 300,32.362183 -10,10"
       style="fill:none;stroke:#ff0000;stroke-width:1px;stroke-linecap:butt;stroke-linejoin:miter;stroke-opacity:1" />
    <path
       inkscape:connector-curvature="0"
       id="path4274"
       d="m 200,62.362183 10,10"
       style="fill:none;stroke:#ff0000;stroke-width:1px;stroke-linecap:butt;stroke-linejoin:miter;stroke-opacity:1" />
    <path
       inkscape:connector-curvature="0"
       id="path4276"
       d="m 210,62.362183 -10,10"
       style="fill:none;stroke:#ff0000;stroke-width:1px;stroke-linecap:butt;stroke-linejoin:miter;stroke-opacity:1" />
    <path
       style="fill:none;stroke:#ff0000;stroke-width:1px;stroke-linecap:butt;stroke-linejoin:miter;stroke-opacity:1"
       d="m 230,62.362183 10,10"
       id="path4278"
       inkscape:connector-curvature="0" />
    <path
       style="fill:none;stroke:#ff0000;stroke-width:1px;stroke-linecap:butt;stroke-linejoin:miter;stroke-opacity:1"
       d="m 240,62.362183 -10,10"
       id="path4280"
       inkscape:connector-curvature="0" />
    <path
       inkscape:connector-curvature="0"
       id="path4282"
       d="m 260,62.362183 10,10"
       style="fill:none;stroke:#ff0000;stroke-width:1px;stroke-linecap:butt;stroke-linejoin:miter;stroke-opacity:1" />
    <path
       inkscape:connector-curvature="0"
       id="path4284"
       d="m 270,62.362183 -10,10"
       style="fill:none;stroke:#ff0000;stroke-width:1px;stroke-linecap:butt;stroke-linejoin:miter;stroke-opacity:1" />
    <path
       style="fill:none;stroke:#ff0000;stroke-width:1px;stroke-linecap:butt;stroke-linejoin:miter;stroke-opacity:1"
       d="m 290,62.362183 10,10"
       id="path4286"
       inkscape:connector-curvature="0" />
    <path
       style="fill:none;stroke:#ff0000;stroke-width:1px;stroke-linecap:butt;stroke-linejoin:miter;stroke-opacity:1"
       d="m 300,62.362183 -10,10"
       id="path4288"
       inkscape:connector-curvature="0" />
    <path
       style="fill:none;stroke:#ff0000;stroke-width:1px;stroke-linecap:butt;stroke-linejoin:miter;stroke-opacity:1"
       d="m 200,92.36218 10,10"
       id="path4290"
       inkscape:connector-curvature="0" />
    <path
       style="fill:none;stroke:#ff0000;stroke-width:1px;stroke-linecap:butt;stroke-linejoin:miter;stroke-opacity:1"
       d="m 210,92.36218 -10,10"
       id="path4292"
       inkscape:connector-curvature="0" />
    <path
       inkscape:connector-curvature="0"
       id="path4294"
       d="m 230,92.36218 10,10"
       style="fill:none;stroke:#ff0000;stroke-width:1px;stroke-linecap:butt;stroke-linejoin:miter;stroke-opacity:1" />
    <path
       inkscape:connector-curvature="0"
       id="path4296"
       d="m 240,92.36218 -10,10"
       style="fill:none;stroke:#ff0000;stroke-width:1px;stroke-linecap:butt;stroke-linejoin:miter;stroke-opacity:1" />
    <path
       style="fill:none;stroke:#ff0000;stroke-width:1px;stroke-linecap:butt;stroke-linejoin:miter;stroke-opacity:1"
       d="m 260,92.36218 10,10"
       id="path4298"
       inkscape:connector-curvature="0" />
    <path
       style="fill:none;stroke:#ff0000;stroke-width:1px;stroke-linecap:butt;stroke-linejoin:miter;stroke-opacity:1"
       d="m 270,92.36218 -10,10"
       id="path4300"
       inkscape:connector-curvature="0" />
    <path
       inkscape:connector-curvature="0"
       id="path4302"
       d="m 290,92.36218 10,10"
       style="fill:none;stroke:#ff0000;stroke-width:1px;stroke-linecap:butt;stroke-linejoin:miter;stroke-opacity:1" />
    <path
       inkscape:connector-curvature="0"
       id="path4304"
       d="m 300,92.36218 -10,10"
       style="fill:none;stroke:#ff0000;stroke-width:1px;stroke-linecap:butt;stroke-linejoin:miter;stroke-opacity:1" />
    <path
       inkscape:connector-curvature="0"
       id="path4306"
       d="m 200,122.36218 10,10"
       style="fill:none;stroke:#ff0000;stroke-width:1px;stroke-linecap:butt;stroke-linejoin:miter;stroke-opacity:1" />
    <path
       inkscape:connector-curvature="0"
       id="path4308"
       d="m 210,122.36218 -10,10"
       style="fill:none;stroke:#ff0000;stroke-width:1px;stroke-linecap:butt;stroke-linejoin:miter;stroke-opacity:1" />
    <path
       style="fill:none;stroke:#ff0000;stroke-width:1px;stroke-linecap:butt;stroke-linejoin:miter;stroke-opacity:1"
       d="m 230,122.36218 10,10"
       id="path4310"
       inkscape:connector-curvature="0" />
    <path
       style="fill:none;stroke:#ff0000;stroke-width:1px;stroke-linecap:butt;stroke-linejoin:miter;stroke-opacity:1"
       d="m 240,122.36218 -10,10"
       id="path4312"
       inkscape:connector-curvature="0" />
    <path
       inkscape:connector-curvature="0"
       id="path4314"
       d="m 260,122.36218 10,10"
       style="fill:none;stroke:#ff0000;stroke-width:1px;stroke-linecap:butt;stroke-linejoin:miter;stroke-opacity:1" />
    <path
       inkscape:connector-curvature="0"
       id="path4316"
       d="m 270,122.36218 -10,10"
       style="fill:none;stroke:#ff0000;stroke-width:1px;stroke-linecap:butt;stroke-linejoin:miter;stroke-opacity:1" />
    <path
       style="fill:none;stroke:#ff0000;stroke-width:1px;stroke-linecap:butt;stroke-linejoin:miter;stroke-opacity:1"
       d="m 290,122.36218 10,10"
       id="path4318"
       inkscape:connector-curvature="0" />
    <path
       style="fill:none;stroke:#ff0000;stroke-width:1px;stroke-linecap:butt;stroke-linejoin:miter;stroke-opacity:1"
       d="m 300,122.36218 -10,10"
       id="path4320"
       inkscape:connector-curvature="0" />
    <path
       inkscape:connector-curvature="0"
       id="path4324"
       d="m 370,22.362183 0,119.999997"
       style="fill:none;stroke:#0000ff;stroke-width:1.5;stroke-linecap:butt;stroke-linejoin:miter;stroke-miterlimit:4;stroke-opacity:1;stroke-dasharray:none" />
    <path
       inkscape:connector-curvature="0"
       id="path4326"
       d="m 400,22.362183 0,119.999997"
       style="fill:none;stroke:#0000ff;stroke-width:1.5;stroke-linecap:butt;stroke-linejoin:miter;stroke-miterlimit:4;stroke-opacity:1;stroke-dasharray:none" />
    <path
       inkscape:connector-curvature="0"
       id="path4328"
       d="m 430,22.362183 0,119.999997"
       style="fill:none;stroke:#0000ff;stroke-width:1.5;stroke-linecap:butt;stroke-linejoin:miter;stroke-miterlimit:4;stroke-opacity:1;stroke-dasharray:none" />
    <path
       inkscape:connector-curvature="0"
       id="path4330"
       d="m 340,52.362183 120,0"
       style="fill:none;stroke:#000000;stroke-width:1;stroke-linecap:butt;stroke-linejoin:miter;stroke-miterlimit:4;stroke-opacity:1;stroke-dasharray:1, 2;stroke-dashoffset:0" />
    <path
       inkscape:connector-curvature="0"
       id="path4332"
       d="m 340,82.362183 120,0"
       style="fill:none;stroke:#000000;stroke-width:1;stroke-linecap:butt;stroke-linejoin:miter;stroke-miterlimit:4;stroke-opacity:1;stroke-dasharray:1, 2;stroke-dashoffset:0" />
    <path
       inkscape:connector-curvature="0"
       id="path4334"
       d="m 340,112.36218 120,0"
       style="fill:none;stroke:#000000;stroke-width:1;stroke-linecap:butt;stroke-linejoin:miter;stroke-miterlimit:4;stroke-opacity:1;stroke-dasharray:1, 2;stroke-dashoffset:0" />
    <path
       style="fill:none;stroke:#000000;stroke-width:1;stroke-linecap:butt;stroke-linejoin:miter;stroke-miterlimit:4;stroke-opacity:1;stroke-dasharray:1, 2;stroke-dashoffset:0"
       d="m 340,22.362183 120,0"
       id="path4400"
       inkscape:connector-curvature="0" />
    <path
       style="fill:none;stroke:#000000;stroke-width:1;stroke-linecap:butt;stroke-linejoin:miter;stroke-miterlimit:4;stroke-opacity:1;stroke-dasharray:1, 2;stroke-dashoffset:0"
       d="m 340,142.36218 120,0"
       id="path4402"
       inkscape:connector-curvature="0" />
    <path
       style="fill:none;stroke:#0000ff;stroke-width:1.5;stroke-linecap:butt;stroke-linejoin:miter;stroke-miterlimit:4;stroke-opacity:1;stroke-dasharray:none"
       d="m 340,22.362183 0,119.999997"
       id="path4404"
       inkscape:connector-curvature="0" />
    <path
       style="fill:none;stroke:#0000ff;stroke-width:1.5;stroke-linecap:butt;stroke-linejoin:miter;stroke-miterlimit:4;stroke-opacity:1;stroke-dasharray:none"
       d="m 460,22.362183 0,119.999997"
       id="path4406"
       inkscape:connector-curvature="0" />
    <text
       xml:space="preserve"
       style="font-size:16px;font-style:normal;font-weight:normal;line-height:125%;letter-spacing:0px;word-spacing:0px;fill:#000000;fill-opacity:1;stroke:none;font-family:Sans"
       x="81.428574"
       y="11.219324"
       id="text4408"
       sodipodi:linespacing="125%"><tspan
         sodipodi:role="line"
         id="tspan4410"
         x="81.428574"
         y="11.219324">Mesh</tspan></text>
    <text
       xml:space="preserve"
       style="font-size:16px;font-style:normal;font-weight:normal;line-height:125%;letter-spacing:0px;word-spacing:0px;fill:#000000;fill-opacity:1;stroke:none;font-family:Sans"
       x="230.42857"
       y="11.790752"
       id="text4412"
       sodipodi:linespacing="125%"><tspan
         sodipodi:role="line"
         id="tspan4414"
         x="230.42857"
         y="11.790752">Cells</tspan></text>
    <text
       xml:space="preserve"
       style="font-size:16px;font-style:normal;font-weight:normal;line-height:125%;letter-spacing:0px;word-spacing:0px;fill:#000000;fill-opacity:1;stroke:none;font-family:Sans"
       x="374.57144"
       y="12.362183"
       id="text4416"
       sodipodi:linespacing="125%"><tspan
         sodipodi:role="line"
         id="tspan4418"
         x="374.57144"
         y="12.362183">Edgex</tspan></text>
  </g>
</svg>
