<?xml version="1.0" encoding="UTF-8" standalone="no"?>
<!-- Created with Inkscape (http://www.inkscape.org/) -->

<svg
   xmlns:dc="http://purl.org/dc/elements/1.1/"
   xmlns:cc="http://creativecommons.org/ns#"
   xmlns:rdf="http://www.w3.org/1999/02/22-rdf-syntax-ns#"
   xmlns:svg="http://www.w3.org/2000/svg"
   xmlns="http://www.w3.org/2000/svg"
   xmlns:sodipodi="http://sodipodi.sourceforge.net/DTD/sodipodi-0.dtd"
   xmlns:inkscape="http://www.inkscape.org/namespaces/inkscape"
   width="293.25"
   height="134.38"
   id="svg2"
   version="1.1"
   inkscape:version="0.48.5 r10040"
   sodipodi:docname="stencil.svg">
  <defs
     id="defs4">
    <marker
       inkscape:stockid="Arrow1Mend"
       orient="auto"
       refY="0"
       refX="0"
       id="Arrow1Mend"
       style="overflow:visible">
      <path
         id="path4213"
         d="M 0,0 5,-5 -12.5,0 5,5 0,0 z"
         style="fill-rule:evenodd;stroke:#000000;stroke-width:1pt"
         transform="matrix(-0.4,0,0,-0.4,-4,0)"
         inkscape:connector-curvature="0" />
    </marker>
  </defs>
  <sodipodi:namedview
     id="base"
     pagecolor="#ffffff"
     bordercolor="#666666"
     borderopacity="1.0"
     inkscape:pageopacity="0.0"
     inkscape:pageshadow="2"
     inkscape:zoom="2.8"
     inkscape:cx="151.00147"
     inkscape:cy="44.776157"
     inkscape:document-units="px"
     inkscape:current-layer="layer1"
     showgrid="true"
     inkscape:window-width="1440"
     inkscape:window-height="793"
     inkscape:window-x="-1"
     inkscape:window-y="0"
     inkscape:window-maximized="0"
     fit-margin-top="0"
     fit-margin-left="0"
     fit-margin-right="0"
     fit-margin-bottom="0">
    <inkscape:grid
       type="xygrid"
       id="grid2985"
       empspacing="5"
       visible="true"
       enabled="true"
       snapvisiblegridlinesonly="true"
       originx="-17px"
       originy="-909.5px" />
  </sodipodi:namedview>
  <metadata
     id="metadata7">
    <rdf:RDF>
      <cc:Work
         rdf:about="">
        <dc:format>image/svg+xml</dc:format>
        <dc:type
           rdf:resource="http://purl.org/dc/dcmitype/StillImage" />
        <dc:title />
      </cc:Work>
    </rdf:RDF>
  </metadata>
  <g
     inkscape:label="Calque 1"
     inkscape:groupmode="layer"
     id="layer1"
     transform="translate(-17,-8.4821825)">
    <path
       sodipodi:type="arc"
       style="fill:#000000;fill-opacity:1;stroke:none"
       id="path2987"
       sodipodi:cx="77.5"
       sodipodi:cy="69.862183"
       sodipodi:rx="2.5"
       sodipodi:ry="2.5"
       d="m 80,69.862183 c 0,1.380711 -1.119288,2.5 -2.5,2.5 -1.380712,0 -2.5,-1.119289 -2.5,-2.5 0,-1.380712 1.119288,-2.5 2.5,-2.5 1.380712,0 2.5,1.119288 2.5,2.5 z"
       transform="translate(-47,-37.5)" />
    <path
       style="fill:none;stroke:#000000;stroke-width:0.625;stroke-linecap:butt;stroke-linejoin:miter;stroke-opacity:1;stroke-miterlimit:4;stroke-dasharray:none"
       d="m 30,52.362183 60,0"
       id="path3863"
       inkscape:connector-curvature="0" />
    <path
       style="fill:none;stroke:#000000;stroke-width:0.625;stroke-linecap:butt;stroke-linejoin:miter;stroke-opacity:1;stroke-miterlimit:4;stroke-dasharray:none"
       d="m 30,72.362183 60,0"
       id="path3865"
       inkscape:connector-curvature="0" />
    <path
       style="fill:none;stroke:#000000;stroke-width:0.86602539px;stroke-linecap:butt;stroke-linejoin:miter;stroke-opacity:1"
       d="M 50,32.362183 50,92.36218"
       id="path3869"
       inkscape:connector-curvature="0" />
    <path
       style="fill:none;stroke:#000000;stroke-width:0.86602539px;stroke-linecap:butt;stroke-linejoin:miter;stroke-opacity:1"
       d="M 70,32.362183 70,92.36218"
       id="path3871"
       inkscape:connector-curvature="0" />
    <path
       sodipodi:type="arc"
       style="fill:#000000;fill-opacity:1;stroke:none"
       id="path3943"
       sodipodi:cx="37.5"
       sodipodi:cy="39.862183"
       sodipodi:rx="2.5"
       sodipodi:ry="2.5"
       d="m 40,39.862183 c 0,1.380711 -1.119288,2.5 -2.5,2.5 -1.380712,0 -2.5,-1.119289 -2.5,-2.5 0,-1.380712 1.119288,-2.5 2.5,-2.5 1.380712,0 2.5,1.119288 2.5,2.5 z"
       transform="translate(13,-7.5)" />
    <path
       sodipodi:type="arc"
       style="fill:#000000;fill-opacity:1;stroke:none"
       id="path3956"
       sodipodi:cx="57.5"
       sodipodi:cy="39.862183"
       sodipodi:rx="2.5"
       sodipodi:ry="2.5"
       d="m 60,39.862183 c 0,1.380711 -1.119288,2.5 -2.5,2.5 -1.380712,0 -2.5,-1.119289 -2.5,-2.5 0,-1.380712 1.119288,-2.5 2.5,-2.5 1.380712,0 2.5,1.119288 2.5,2.5 z"
       transform="translate(12,-8)" />
    <path
       sodipodi:type="arc"
       style="fill:#000000;fill-opacity:1;stroke:none"
       id="path3958"
       sodipodi:cx="77.5"
       sodipodi:cy="34.862183"
       sodipodi:rx="2.5"
       sodipodi:ry="2.5"
       d="m 80,34.862183 c 0,1.380711 -1.119288,2.5 -2.5,2.5 -1.380712,0 -2.5,-1.119289 -2.5,-2.5 0,-1.380712 1.119288,-2.5 2.5,-2.5 1.380712,0 2.5,1.119288 2.5,2.5 z"
       transform="translate(12,-2)" />
    <path
       sodipodi:type="arc"
       style="fill:#000000;fill-opacity:1;stroke:none"
       id="path3962"
       sodipodi:cx="17.5"
       sodipodi:cy="59.862183"
       sodipodi:rx="2.5"
       sodipodi:ry="2.5"
       d="m 20,59.862183 c 0,1.380711 -1.119288,2.5 -2.5,2.5 -1.380712,0 -2.5,-1.119289 -2.5,-2.5 0,-1.380712 1.119288,-2.5 2.5,-2.5 1.380712,0 2.5,1.119288 2.5,2.5 z"
       transform="translate(12,-8)" />
    <path
       sodipodi:type="arc"
       style="fill:#000000;fill-opacity:1;stroke:none"
       id="path3964"
       sodipodi:cx="37.5"
       sodipodi:cy="59.862183"
       sodipodi:rx="2.5"
       sodipodi:ry="2.5"
       d="m 40,59.862183 c 0,1.380711 -1.119288,2.5 -2.5,2.5 -1.380712,0 -2.5,-1.119289 -2.5,-2.5 0,-1.380712 1.119288,-2.5 2.5,-2.5 1.380712,0 2.5,1.119288 2.5,2.5 z"
       transform="translate(12,-8)" />
    <path
       sodipodi:type="arc"
       style="fill:#000000;fill-opacity:1;stroke:none"
       id="path3966"
       sodipodi:cx="57.5"
       sodipodi:cy="59.862183"
       sodipodi:rx="2.5"
       sodipodi:ry="2.5"
       d="m 60,59.862183 c 0,1.380711 -1.119288,2.5 -2.5,2.5 -1.380712,0 -2.5,-1.119289 -2.5,-2.5 0,-1.380712 1.119288,-2.5 2.5,-2.5 1.380712,0 2.5,1.119288 2.5,2.5 z"
       transform="translate(12,-8)" />
    <path
       sodipodi:type="arc"
       style="fill:#000000;fill-opacity:1;stroke:none"
       id="path3968"
       sodipodi:cx="77.5"
       sodipodi:cy="59.862183"
       sodipodi:rx="2.5"
       sodipodi:ry="2.5"
       d="m 80,59.862183 c 0,1.380711 -1.119288,2.5 -2.5,2.5 -1.380712,0 -2.5,-1.119289 -2.5,-2.5 0,-1.380712 1.119288,-2.5 2.5,-2.5 1.380712,0 2.5,1.119288 2.5,2.5 z"
       transform="translate(12,-8)" />
    <path
       sodipodi:type="arc"
       style="fill:#000000;fill-opacity:1;stroke:none"
       id="path3972"
       sodipodi:cx="17.5"
       sodipodi:cy="79.862183"
       sodipodi:rx="2.5"
       sodipodi:ry="2.5"
       d="m 20,79.862183 c 0,1.380711 -1.119288,2.5 -2.5,2.5 -1.380712,0 -2.5,-1.119289 -2.5,-2.5 0,-1.380712 1.119288,-2.5 2.5,-2.5 1.380712,0 2.5,1.119288 2.5,2.5 z"
       transform="translate(12,-8)" />
    <path
       sodipodi:type="arc"
       style="fill:#000000;fill-opacity:1;stroke:none"
       id="path3974"
       sodipodi:cx="37.5"
       sodipodi:cy="79.862183"
       sodipodi:rx="2.5"
       sodipodi:ry="2.5"
       d="m 40,79.862183 c 0,1.380711 -1.119288,2.5 -2.5,2.5 -1.380712,0 -2.5,-1.119289 -2.5,-2.5 0,-1.380712 1.119288,-2.5 2.5,-2.5 1.380712,0 2.5,1.119288 2.5,2.5 z"
       transform="translate(12,-8)" />
    <path
       sodipodi:type="arc"
       style="fill:#000000;fill-opacity:1;stroke:none"
       id="path3976"
       sodipodi:cx="57.5"
       sodipodi:cy="79.862183"
       sodipodi:rx="2.5"
       sodipodi:ry="2.5"
       d="m 60,79.862183 c 0,1.380711 -1.119288,2.5 -2.5,2.5 -1.380712,0 -2.5,-1.119289 -2.5,-2.5 0,-1.380712 1.119288,-2.5 2.5,-2.5 1.380712,0 2.5,1.119288 2.5,2.5 z"
       transform="translate(12,-8)" />
    <path
       sodipodi:type="arc"
       style="fill:#000000;fill-opacity:1;stroke:none"
       id="path3978"
       sodipodi:cx="77.5"
       sodipodi:cy="79.862183"
       sodipodi:rx="2.5"
       sodipodi:ry="2.5"
       d="m 80,79.862183 c 0,1.380711 -1.119288,2.5 -2.5,2.5 -1.380712,0 -2.5,-1.119289 -2.5,-2.5 0,-1.380712 1.119288,-2.5 2.5,-2.5 1.380712,0 2.5,1.119288 2.5,2.5 z"
       transform="translate(12,-8)" />
    <path
       sodipodi:type="arc"
       style="fill:#000000;fill-opacity:1;stroke:none"
       id="path3982"
       sodipodi:cx="17.5"
       sodipodi:cy="99.862183"
       sodipodi:rx="2.5"
       sodipodi:ry="2.5"
       d="m 20,99.862183 c 0,1.380707 -1.119288,2.499997 -2.5,2.499997 -1.380712,0 -2.5,-1.11929 -2.5,-2.499997 0,-1.380712 1.119288,-2.5 2.5,-2.5 1.380712,0 2.5,1.119288 2.5,2.5 z"
       transform="translate(12,-8)" />
    <path
       sodipodi:type="arc"
       style="fill:#000000;fill-opacity:1;stroke:none"
       id="path3984"
       sodipodi:cx="37.5"
       sodipodi:cy="99.862183"
       sodipodi:rx="2.5"
       sodipodi:ry="2.5"
       d="m 40,99.862183 c 0,1.380707 -1.119288,2.499997 -2.5,2.499997 -1.380712,0 -2.5,-1.11929 -2.5,-2.499997 0,-1.380712 1.119288,-2.5 2.5,-2.5 1.380712,0 2.5,1.119288 2.5,2.5 z"
       transform="translate(12,-8)" />
    <path
       sodipodi:type="arc"
       style="fill:#000000;fill-opacity:1;stroke:none"
       id="path3986"
       sodipodi:cx="57.5"
       sodipodi:cy="99.862183"
       sodipodi:rx="2.5"
       sodipodi:ry="2.5"
       d="m 60,99.862183 c 0,1.380707 -1.119288,2.499997 -2.5,2.499997 -1.380712,0 -2.5,-1.11929 -2.5,-2.499997 0,-1.380712 1.119288,-2.5 2.5,-2.5 1.380712,0 2.5,1.119288 2.5,2.5 z"
       transform="translate(12,-8)" />
    <path
       sodipodi:type="arc"
       style="fill:#000000;fill-opacity:1;stroke:none"
       id="path3988"
       sodipodi:cx="77.5"
       sodipodi:cy="99.862183"
       sodipodi:rx="2.5"
       sodipodi:ry="2.5"
       d="m 80,99.862183 c 0,1.380707 -1.119288,2.499997 -2.5,2.499997 -1.380712,0 -2.5,-1.11929 -2.5,-2.499997 0,-1.380712 1.119288,-2.5 2.5,-2.5 1.380712,0 2.5,1.119288 2.5,2.5 z"
       transform="translate(12,-8)" />
    <text
       xml:space="preserve"
       style="font-size:16px;font-style:normal;font-weight:normal;line-height:125%;letter-spacing:0px;word-spacing:0px;fill:#000000;fill-opacity:1;stroke:none;font-family:Sans"
       x="45"
       y="27.362183"
       id="text4002"
       sodipodi:linespacing="125%"><tspan
         sodipodi:role="line"
         id="tspan4004"
         x="45"
         y="27.362183"
         style="font-size:12px;font-style:normal;font-variant:normal;font-weight:normal;font-stretch:normal;font-family:Arial;-inkscape-font-specification:Arial">Mesh</tspan></text>
    <rect
       style="fill:none;stroke:#ff0000;stroke-width:1;stroke-opacity:1;stroke-miterlimit:4;stroke-dasharray:none"
       id="rect4059"
       width="60"
       height="60"
       x="100"
       y="32.362183" />
    <path
       style="fill:none;stroke:#ff0000;stroke-width:1;stroke-linecap:butt;stroke-linejoin:miter;stroke-miterlimit:4;stroke-opacity:1;stroke-dasharray:none"
       d="m 100,52.362183 60,0"
       id="path4061"
       inkscape:connector-curvature="0" />
    <path
       style="fill:none;stroke:#ff0000;stroke-width:1;stroke-linecap:butt;stroke-linejoin:miter;stroke-miterlimit:4;stroke-opacity:1;stroke-dasharray:none"
       d="m 100,72.362183 60,0"
       id="path4063"
       inkscape:connector-curvature="0" />
    <path
       style="fill:none;stroke:#ff0000;stroke-width:1;stroke-linecap:butt;stroke-linejoin:miter;stroke-miterlimit:4;stroke-opacity:1;stroke-dasharray:none"
       d="m 120,32.362183 0,59.999997"
       id="path4067"
       inkscape:connector-curvature="0" />
    <path
       style="fill:none;stroke:#ff0000;stroke-width:1;stroke-linecap:butt;stroke-linejoin:miter;stroke-miterlimit:4;stroke-opacity:1;stroke-dasharray:none"
       d="m 140,32.362183 0,59.999997"
       id="path4069"
       inkscape:connector-curvature="0" />
    <text
       xml:space="preserve"
       style="font-size:16px;font-style:normal;font-weight:normal;line-height:125%;letter-spacing:0px;word-spacing:0px;fill:#000000;fill-opacity:1;stroke:none;font-family:Sans"
       x="125"
       y="27.362183"
       id="text4096"
       sodipodi:linespacing="125%"><tspan
         sodipodi:role="line"
         id="tspan4098"
         x="125"
         y="27.362183"
         style="font-size:12px;font-style:normal;font-variant:normal;font-weight:normal;font-stretch:normal;font-family:Arial;-inkscape-font-specification:Arial">A</tspan></text>
    <text
       xml:space="preserve"
       style="font-size:16px;font-style:normal;font-weight:normal;line-height:125%;letter-spacing:0px;word-spacing:0px;fill:#000000;fill-opacity:1;stroke:none;font-family:Sans"
       x="122"
       y="64.362183"
       id="text4123"
       sodipodi:linespacing="125%"><tspan
         sodipodi:role="line"
         id="tspan4125"
         x="122"
         y="64.362183"
         style="font-size:6px">(x,y)</tspan></text>
    <text
       xml:space="preserve"
       style="font-size:16px;font-style:normal;font-weight:normal;line-height:125%;letter-spacing:0px;word-spacing:0px;fill:#000000;fill-opacity:1;stroke:none;font-family:Sans"
       x="150.73047"
       y="60.362183"
       id="text4150"
       sodipodi:linespacing="125%"><tspan
         sodipodi:role="line"
         id="tspan4152"
         x="150.73047"
         y="60.362183"
         style="font-size:6px;text-align:center;text-anchor:middle">x+1</tspan><tspan
         sodipodi:role="line"
         x="150.73047"
         y="67.862183"
         style="font-size:6px;text-align:center;text-anchor:middle"
         id="tspan4166">y</tspan></text>
    <text
       xml:space="preserve"
       style="font-size:16px;font-style:normal;font-weight:normal;line-height:125%;letter-spacing:0px;word-spacing:0px;fill:#000000;fill-opacity:1;stroke:none;font-family:Sans"
       x="110"
       y="60.362183"
       id="text4154"
       sodipodi:linespacing="125%"><tspan
         sodipodi:role="line"
         id="tspan4156"
         x="110"
         y="60.362183"
         style="font-size:6px;text-align:center;text-anchor:middle">x-1</tspan><tspan
         sodipodi:role="line"
         x="110"
         y="67.862183"
         style="font-size:6px;text-align:center;text-anchor:middle"
         id="tspan4168">y</tspan></text>
    <text
       xml:space="preserve"
       style="font-size:16px;font-style:normal;font-weight:normal;line-height:125%;letter-spacing:0px;word-spacing:0px;fill:#000000;fill-opacity:1;stroke:none;font-family:Sans"
       x="130"
       y="80.362183"
       id="text4158"
       sodipodi:linespacing="125%"><tspan
         sodipodi:role="line"
         id="tspan4160"
         x="130"
         y="80.362183"
         style="font-size:6px;text-align:center;text-anchor:middle">x</tspan><tspan
         sodipodi:role="line"
         x="130"
         y="87.862183"
         style="font-size:6px;text-align:center;text-anchor:middle"
         id="tspan4170">y+1</tspan></text>
    <text
       xml:space="preserve"
       style="font-size:16px;font-style:normal;font-weight:normal;line-height:125%;letter-spacing:0px;word-spacing:0px;fill:#000000;fill-opacity:1;stroke:none;font-family:Sans"
       x="130"
       y="40.362183"
       id="text4162"
       sodipodi:linespacing="125%"><tspan
         sodipodi:role="line"
         id="tspan4164"
         x="130"
         y="40.362183"
         style="font-size:6px;text-align:center;text-anchor:middle">x</tspan><tspan
         sodipodi:role="line"
         x="130"
         y="47.862183"
         style="font-size:6px;text-align:center;text-anchor:middle"
         id="tspan4172">y-1</tspan></text>
    <path
       style="fill:none;stroke:#ff0000;stroke-width:0.44499999;stroke-linecap:butt;stroke-linejoin:miter;stroke-miterlimit:4;stroke-opacity:1;stroke-dasharray:none"
       d="m 170,72.362183 60,0"
       id="path4188"
       inkscape:connector-curvature="0" />
    <text
       xml:space="preserve"
       style="font-size:16px;font-style:normal;font-weight:normal;line-height:125%;letter-spacing:0px;word-spacing:0px;fill:#000000;fill-opacity:1;stroke:none;font-family:Sans"
       x="196.21429"
       y="28.147896"
       id="text4190"
       sodipodi:linespacing="125%"><tspan
         sodipodi:role="line"
         id="tspan4192"
         x="196.21429"
         y="28.147896"
         style="font-size:12px;font-style:normal;font-variant:normal;font-weight:normal;font-stretch:normal;font-family:Arial;-inkscape-font-specification:Arial">B</tspan></text>
    <text
       xml:space="preserve"
       style="font-size:16px;font-style:normal;font-weight:normal;line-height:125%;letter-spacing:0px;word-spacing:0px;fill:#000000;fill-opacity:1;stroke:none;font-family:Sans"
       x="192"
       y="64.362183"
       id="text4194"
       sodipodi:linespacing="125%"><tspan
         sodipodi:role="line"
         id="tspan4196"
         x="192"
         y="64.362183"
         style="font-size:6px">(x,y)</tspan></text>
    <path
       style="fill:none;stroke:#000000;stroke-width:1px;stroke-linecap:butt;stroke-linejoin:miter;stroke-opacity:1;marker-end:url(#Arrow1Mend)"
       d="m 155,67.362183 c 20,-10 35,-5 35,-5"
       id="path5012"
       inkscape:connector-curvature="0" />
    <path
       style="fill:none;stroke:#0000ff;stroke-width:1;stroke-linecap:butt;stroke-linejoin:miter;stroke-miterlimit:4;stroke-opacity:1;stroke-dasharray:none;stroke-dashoffset:0"
       d="m 260,32.362183 0,59.999997"
       id="path3965"
       inkscape:connector-curvature="0" />
    <path
       style="fill:none;stroke:#0000ff;stroke-width:1;stroke-linecap:butt;stroke-linejoin:miter;stroke-miterlimit:4;stroke-opacity:1;stroke-dasharray:none;stroke-dashoffset:0"
       d="m 280,32.362183 0,59.999997"
       id="path3967"
       inkscape:connector-curvature="0" />
    <text
       xml:space="preserve"
       style="font-size:12px;font-style:normal;font-weight:normal;line-height:125%;letter-spacing:0px;word-spacing:0px;fill:#000000;fill-opacity:1;stroke:none;font-family:Sans"
       x="265"
       y="27.362183"
       id="text3998"
       sodipodi:linespacing="125%"><tspan
         sodipodi:role="line"
         id="tspan4000"
         x="265"
         y="27.362183">C</tspan></text>
    <text
       xml:space="preserve"
       style="font-size:6px;font-style:normal;font-weight:normal;line-height:125%;letter-spacing:0px;word-spacing:0px;fill:#000000;fill-opacity:1;stroke:none;font-family:Sans"
       x="248"
       y="63.362183"
       id="text4003"
       sodipodi:linespacing="125%"><tspan
         sodipodi:role="line"
         id="tspan4005"
         x="248"
         y="63.362183">(x1,y1)</tspan></text>
    <text
       xml:space="preserve"
       style="font-size:16px;font-style:normal;font-weight:normal;line-height:125%;letter-spacing:0px;word-spacing:0px;fill:#000000;fill-opacity:1;stroke:none;font-family:Sans"
       x="280"
       y="60.362183"
       id="text4070"
       sodipodi:linespacing="125%"><tspan
         sodipodi:role="line"
         id="tspan4072"
         x="280"
         y="60.362183"
         style="font-size:6px;text-align:center;text-anchor:middle">x1+1</tspan><tspan
         sodipodi:role="line"
         x="280"
         y="67.862183"
         id="tspan4074"
         style="font-size:6px;text-align:center;text-anchor:middle">y1</tspan></text>
    <path
       style="fill:none;stroke:#ff0000;stroke-width:1px;stroke-linecap:butt;stroke-linejoin:miter;stroke-opacity:1"
       d="m 35,37.362183 10,10"
       id="path4446"
       inkscape:connector-curvature="0" />
    <path
       style="fill:none;stroke:#ff0000;stroke-width:1px;stroke-linecap:butt;stroke-linejoin:miter;stroke-opacity:1"
       d="m 35,47.362183 10,-10"
       id="path4448"
       inkscape:connector-curvature="0" />
    <path
       style="fill:none;stroke:#ff0000;stroke-width:1px;stroke-linecap:butt;stroke-linejoin:miter;stroke-opacity:1"
       d="m 30,107.36218 10,10"
       id="path4466"
       inkscape:connector-curvature="0" />
    <path
       style="fill:none;stroke:#ff0000;stroke-width:1px;stroke-linecap:butt;stroke-linejoin:miter;stroke-opacity:1"
       d="m 30,117.36218 10,-10"
       id="path4468"
       inkscape:connector-curvature="0" />
    <path
       style="fill:none;stroke:#0000ff;stroke-width:1px;stroke-linecap:butt;stroke-linejoin:miter;stroke-opacity:1"
       d="m 30,122.36218 10,10"
       id="path4470"
       inkscape:connector-curvature="0" />
    <text
       xml:space="preserve"
       style="font-size:16px;font-style:normal;font-weight:normal;line-height:125%;letter-spacing:0px;word-spacing:0px;fill:#000000;fill-opacity:1;stroke:none;font-family:Sans"
       x="45"
       y="114.36218"
       id="text4474"
       sodipodi:linespacing="125%"><tspan
         sodipodi:role="line"
         id="tspan4476"
         x="45"
         y="114.36218"
         style="font-size:8px">Domain on the center of cells</tspan></text>
    <text
       xml:space="preserve"
       style="font-size:16px;font-style:normal;font-weight:normal;line-height:125%;letter-spacing:0px;word-spacing:0px;fill:#000000;fill-opacity:1;stroke:none;font-family:Sans"
       x="44.57143"
       y="129.1479"
       id="text4478"
       sodipodi:linespacing="125%"><tspan
         sodipodi:role="line"
         id="tspan4480"
         x="44.57143"
         y="129.1479"
         style="font-size:8px">Domain on the x edge</tspan></text>
    <path
       style="fill:none;stroke:#0000ff;stroke-width:1px;stroke-linecap:butt;stroke-linejoin:miter;stroke-opacity:1"
       d="m 30,32.362183 0,20"
       id="path4482"
       inkscape:connector-curvature="0" />
    <path
       style="fill:none;stroke:#0000ff;stroke-width:1px;stroke-linecap:butt;stroke-linejoin:miter;stroke-opacity:1"
       d="m 50,32.362183 0,20"
       id="path4484"
       inkscape:connector-curvature="0" />
    <path
       style="fill:none;stroke:#0000ff;stroke-width:1px;stroke-linecap:butt;stroke-linejoin:miter;stroke-opacity:1"
       d="m 70,32.362183 0,20"
       id="path4486"
       inkscape:connector-curvature="0" />
    <path
       style="fill:none;stroke:#0000ff;stroke-width:1px;stroke-linecap:butt;stroke-linejoin:miter;stroke-opacity:1"
       d="m 90,32.362183 0,20"
       id="path4488"
       inkscape:connector-curvature="0" />
    <path
       style="fill:none;stroke:#0000ff;stroke-width:1px;stroke-linecap:butt;stroke-linejoin:miter;stroke-opacity:1"
       d="m 30,52.362183 0,20"
       id="path4490"
       inkscape:connector-curvature="0" />
    <path
       style="fill:none;stroke:#0000ff;stroke-width:1px;stroke-linecap:butt;stroke-linejoin:miter;stroke-opacity:1"
       d="m 50,52.362183 0,20"
       id="path4492"
       inkscape:connector-curvature="0" />
    <path
       style="fill:none;stroke:#0000ff;stroke-width:1px;stroke-linecap:butt;stroke-linejoin:miter;stroke-opacity:1"
       d="m 70,52.362183 0,20"
       id="path4494"
       inkscape:connector-curvature="0" />
    <path
       style="fill:none;stroke:#0000ff;stroke-width:1px;stroke-linecap:butt;stroke-linejoin:miter;stroke-opacity:1"
       d="m 90,52.362183 0,20"
       id="path4496"
       inkscape:connector-curvature="0" />
    <path
       style="fill:none;stroke:#0000ff;stroke-width:1px;stroke-linecap:butt;stroke-linejoin:miter;stroke-opacity:1"
       d="M 30,72.362183 30,92.36218"
       id="path4498"
       inkscape:connector-curvature="0" />
    <path
       style="fill:none;stroke:#0000ff;stroke-width:1px;stroke-linecap:butt;stroke-linejoin:miter;stroke-opacity:1"
       d="M 50,72.362183 50,92.36218"
       id="path4500"
       inkscape:connector-curvature="0" />
    <path
       style="fill:none;stroke:#0000ff;stroke-width:1px;stroke-linecap:butt;stroke-linejoin:miter;stroke-opacity:1"
       d="M 70,72.362183 70,92.36218"
       id="path4502"
       inkscape:connector-curvature="0" />
    <path
       style="fill:none;stroke:#0000ff;stroke-width:1px;stroke-linecap:butt;stroke-linejoin:miter;stroke-opacity:1"
       d="M 90,72.362183 90,92.36218"
       id="path4504"
       inkscape:connector-curvature="0" />
    <path
       style="fill:none;stroke:#ff0000;stroke-width:1px;stroke-linecap:butt;stroke-linejoin:miter;stroke-opacity:1"
       d="m 55,37.362183 10,10"
       id="path4506"
       inkscape:connector-curvature="0" />
    <path
       style="fill:none;stroke:#ff0000;stroke-width:1px;stroke-linecap:butt;stroke-linejoin:miter;stroke-opacity:1"
       d="m 55,47.362183 10,-10"
       id="path4508"
       inkscape:connector-curvature="0" />
    <path
       style="fill:none;stroke:#ff0000;stroke-width:1px;stroke-linecap:butt;stroke-linejoin:miter;stroke-opacity:1"
       d="m 75,37.362183 10,10"
       id="path4510"
       inkscape:connector-curvature="0" />
    <path
       style="fill:none;stroke:#ff0000;stroke-width:1px;stroke-linecap:butt;stroke-linejoin:miter;stroke-opacity:1"
       d="m 75,47.362183 10,-10"
       id="path4512"
       inkscape:connector-curvature="0" />
    <path
       style="fill:none;stroke:#ff0000;stroke-width:1px;stroke-linecap:butt;stroke-linejoin:miter;stroke-opacity:1"
       d="m 35,57.362183 10,10"
       id="path4514"
       inkscape:connector-curvature="0" />
    <path
       style="fill:none;stroke:#ff0000;stroke-width:1px;stroke-linecap:butt;stroke-linejoin:miter;stroke-opacity:1"
       d="m 35,67.362183 10,-10"
       id="path4516"
       inkscape:connector-curvature="0" />
    <path
       style="fill:none;stroke:#ff0000;stroke-width:1px;stroke-linecap:butt;stroke-linejoin:miter;stroke-opacity:1"
       d="m 55,57.362183 10,10"
       id="path4518"
       inkscape:connector-curvature="0" />
    <path
       style="fill:none;stroke:#ff0000;stroke-width:1px;stroke-linecap:butt;stroke-linejoin:miter;stroke-opacity:1"
       d="m 55,67.362183 10,-10"
       id="path4520"
       inkscape:connector-curvature="0" />
    <path
       style="fill:none;stroke:#ff0000;stroke-width:1px;stroke-linecap:butt;stroke-linejoin:miter;stroke-opacity:1"
       d="m 75,57.362183 10,10"
       id="path4522"
       inkscape:connector-curvature="0" />
    <path
       style="fill:none;stroke:#ff0000;stroke-width:1px;stroke-linecap:butt;stroke-linejoin:miter;stroke-opacity:1"
       d="m 75,67.362183 10,-10"
       id="path4524"
       inkscape:connector-curvature="0" />
    <path
       style="fill:none;stroke:#ff0000;stroke-width:1px;stroke-linecap:butt;stroke-linejoin:miter;stroke-opacity:1"
       d="m 35,77.362183 10,10"
       id="path4526"
       inkscape:connector-curvature="0" />
    <path
       style="fill:none;stroke:#ff0000;stroke-width:1px;stroke-linecap:butt;stroke-linejoin:miter;stroke-opacity:1"
       d="m 35,87.362183 10,-10"
       id="path4528"
       inkscape:connector-curvature="0" />
    <path
       style="fill:none;stroke:#ff0000;stroke-width:1px;stroke-linecap:butt;stroke-linejoin:miter;stroke-opacity:1"
       d="m 55,77.362183 10,10"
       id="path4530"
       inkscape:connector-curvature="0" />
    <path
       style="fill:none;stroke:#ff0000;stroke-width:1px;stroke-linecap:butt;stroke-linejoin:miter;stroke-opacity:1"
       d="m 55,87.362183 10,-10"
       id="path4532"
       inkscape:connector-curvature="0" />
    <path
       style="fill:none;stroke:#ff0000;stroke-width:1px;stroke-linecap:butt;stroke-linejoin:miter;stroke-opacity:1"
       d="m 75,77.362183 10,10"
       id="path4534"
       inkscape:connector-curvature="0" />
    <path
       style="fill:none;stroke:#ff0000;stroke-width:1px;stroke-linecap:butt;stroke-linejoin:miter;stroke-opacity:1"
       d="m 75,87.362183 10,-10"
       id="path4536"
       inkscape:connector-curvature="0" />
    <path
       style="fill:none;stroke:#0000ff;stroke-width:1;stroke-linecap:butt;stroke-linejoin:miter;stroke-miterlimit:4;stroke-opacity:1;stroke-dasharray:none;stroke-dashoffset:0"
       d="m 240,32.362183 0,59.999997"
       id="path4538"
       inkscape:connector-curvature="0" />
    <path
       style="fill:none;stroke:#0000ff;stroke-width:1;stroke-linecap:butt;stroke-linejoin:miter;stroke-miterlimit:4;stroke-opacity:1;stroke-dasharray:none;stroke-dashoffset:0"
       d="m 300,32.362183 0,59.999997"
       id="path4540"
       inkscape:connector-curvature="0" />
    <rect
       style="fill:none;stroke:#ff0000;stroke-width:1;stroke-miterlimit:4;stroke-opacity:1;stroke-dasharray:1,1;stroke-dashoffset:0"
       id="rect4544"
       width="60"
       height="20"
       x="170"
       y="72.362183" />
    <path
       style="fill:none;stroke:#ff0000;stroke-width:1;stroke-linecap:butt;stroke-linejoin:miter;stroke-miterlimit:4;stroke-opacity:1;stroke-dasharray:1,1;stroke-dashoffset:0"
       d="m 190,72.362183 0,19.999997"
       id="path4546"
       inkscape:connector-curvature="0" />
    <path
       style="fill:none;stroke:#ff0000;stroke-width:1;stroke-linecap:butt;stroke-linejoin:miter;stroke-miterlimit:4;stroke-opacity:1;stroke-dasharray:1, 1;stroke-dashoffset:0"
       d="m 210,72.362183 0,19.999997"
       id="path4548"
       inkscape:connector-curvature="0" />
    <path
       style="fill:none;stroke:#000000;stroke-width:0.5;stroke-linecap:butt;stroke-linejoin:miter;stroke-miterlimit:4;stroke-opacity:1;stroke-dasharray:none"
       d="m 240,32.362183 60,0"
       id="path4550"
       inkscape:connector-curvature="0" />
    <path
       style="fill:none;stroke:#000000;stroke-width:0.5;stroke-linecap:butt;stroke-linejoin:miter;stroke-miterlimit:4;stroke-opacity:1;stroke-dasharray:none"
       d="m 240,52.362183 60,0"
       id="path4552"
       inkscape:connector-curvature="0" />
    <path
       style="fill:none;stroke:#000000;stroke-width:0.5;stroke-linecap:butt;stroke-linejoin:miter;stroke-miterlimit:4;stroke-opacity:1;stroke-dasharray:none"
       d="m 240,72.362183 60,0"
       id="path4554"
       inkscape:connector-curvature="0" />
    <path
       style="fill:none;stroke:#000000;stroke-width:0.5;stroke-linecap:butt;stroke-linejoin:miter;stroke-miterlimit:4;stroke-opacity:1;stroke-dasharray:none"
       d="m 240,92.36218 60,0"
       id="path4556"
       inkscape:connector-curvature="0" />
    <path
       style="fill:none;stroke:#000000;stroke-width:1px;stroke-linecap:butt;stroke-linejoin:miter;stroke-opacity:1;marker-start:none;marker-mid:none;marker-end:url(#Arrow1Mend)"
       d="m 260,57.362183 c -20,-25 -55,0 -55,0"
       id="path4558"
       inkscape:connector-curvature="0" />
    <path
       style="fill:none;stroke:#000000;stroke-width:1px;stroke-linecap:butt;stroke-linejoin:miter;stroke-opacity:1;marker-end:url(#Arrow1Mend)"
       d="m 280,69.362183 c -60,39.999997 -75,0 -75,0"
       id="path5106"
       inkscape:connector-curvature="0" />
    <path
       style="fill:none;stroke:#000000;stroke-width:1px;stroke-linecap:butt;stroke-linejoin:miter;stroke-opacity:1;marker-end:url(#Arrow1Mend)"
       d="m 135,87.362183 c 35,24.999997 60,-20 60,-20"
       id="path5474"
       inkscape:connector-curvature="0" />
    <path
       style="fill:none;stroke:#000000;stroke-width:1px;stroke-linecap:butt;stroke-linejoin:miter;stroke-opacity:1;marker-end:url(#Arrow1Mend)"
       d="m 115,57.362183 c 65,-30 80,0 80,0"
       id="path5658"
       inkscape:connector-curvature="0" />
    <path
       style="fill:none;stroke:#000000;stroke-width:1px;stroke-linecap:butt;stroke-linejoin:miter;stroke-opacity:1;marker-end:url(#Arrow1Mend)"
       d="m 135,37.362183 c 50,-25 65,20 65,20"
       id="path6026"
       inkscape:connector-curvature="0" />
    <path
       style="fill:none;stroke:#000000;stroke-width:0.625;stroke-linecap:butt;stroke-linejoin:miter;stroke-opacity:1;stroke-miterlimit:4;stroke-dasharray:none"
       d="m 13,23.880005 60,0"
       id="path3107"
       inkscape:connector-curvature="0"
       transform="translate(17,8.4821825)" />
    <path
       style="fill:none;stroke:#000000;stroke-width:0.625;stroke-linecap:butt;stroke-linejoin:miter;stroke-opacity:1;stroke-miterlimit:4;stroke-dasharray:none"
       d="m 13,83.880005 60,0"
       id="path3109"
       inkscape:connector-curvature="0"
       transform="translate(17,8.4821825)" />
    <path
       style="fill:none;stroke:#ff0000;stroke-width:1px;stroke-linecap:butt;stroke-linejoin:miter;stroke-opacity:1"
       d="m 153,63.880005 0,-40 60,0 0,40"
       id="path3885"
       inkscape:connector-curvature="0"
       transform="translate(17,8.4821825)" />
    <path
       style="fill:none;stroke:#ff0000;stroke-width:1px;stroke-linecap:butt;stroke-linejoin:miter;stroke-opacity:1"
       d="m 173,23.880005 0,40"
       id="path3887"
       inkscape:connector-curvature="0"
       transform="translate(17,8.4821825)" />
    <path
       style="fill:none;stroke:#ff0000;stroke-width:1px;stroke-linecap:butt;stroke-linejoin:miter;stroke-opacity:1"
       d="m 193,23.880005 0,40"
       id="path3889"
       inkscape:connector-curvature="0"
       transform="translate(17,8.4821825)" />
    <path
       style="fill:none;stroke:#ff0000;stroke-width:1px;stroke-linecap:butt;stroke-linejoin:miter;stroke-opacity:1"
       d="m 153,43.880005 60,0"
       id="path3891"
       inkscape:connector-curvature="0"
       transform="translate(17,8.4821825)" />
  </g>
</svg>
